<?xml version="1.0" standalone="no"?>
<!DOCTYPE svg PUBLIC "-//W3C//DTD SVG 20010904//EN"
 "http://www.w3.org/TR/2001/REC-SVG-20010904/DTD/svg10.dtd">
<svg version="1.0" xmlns="http://www.w3.org/2000/svg"
 width="512.000000pt" height="512.000000pt" viewBox="0 0 512.000000 512.000000"
 preserveAspectRatio="xMidYMid meet">
<metadata>
Created by potrace 1.11, written by Peter Selinger 2001-2013
</metadata>
<g transform="translate(0.000000,512.000000) scale(0.100000,-0.100000)"
fill="#000000" stroke="none">
<path d="M1180 4858 c-158 -17 -322 -76 -446 -159 -79 -53 -100 -87 -91 -146
7 -42 34 -73 102 -119 28 -19 61 -42 75 -51 14 -10 101 -72 195 -137 93 -65
172 -123 173 -127 2 -5 9 -9 16 -9 21 0 87 -71 107 -114 21 -47 24 -117 7
-167 -11 -35 -60 -112 -88 -140 -47 -47 -125 -72 -195 -63 -52 8 -77 24 -366
234 -95 69 -188 135 -208 147 -67 42 -146 20 -177 -49 -14 -32 -16 -58 -11
-160 19 -376 224 -691 562 -860 154 -78 302 -108 490 -101 292 11 288 12 412
-110 51 -50 93 -95 93 -101 0 -5 -293 -303 -651 -661 -405 -405 -664 -671
-685 -705 -36 -58 -70 -139 -79 -192 -3 -17 -8 -35 -11 -39 -7 -12 -7 -169 0
-209 43 -233 231 -451 456 -529 89 -31 92 -32 200 -32 146 0 289 47 389 129
25 20 333 323 683 674 l638 637 20 -26 c30 -38 43 -99 40 -183 -12 -305 0
-415 61 -563 15 -39 25 -75 22 -81 -3 -6 -2 -8 2 -4 5 5 24 -20 43 -54 100
-181 276 -339 471 -424 129 -56 219 -75 371 -80 119 -4 158 -1 269 21 132 25
358 144 396 207 19 32 15 99 -8 129 -15 19 -195 149 -207 149 -4 0 -10 4 -12
8 -1 4 -70 55 -153 112 -82 58 -156 110 -163 117 -7 7 -17 13 -21 13 -4 0 -22
15 -40 33 -80 77 -93 196 -34 295 58 96 119 140 208 149 75 8 98 -5 405 -227
263 -191 280 -198 348 -160 50 28 62 63 62 176 0 330 -177 657 -454 836 -117
75 -223 119 -366 149 -68 15 -114 17 -230 13 -313 -11 -287 -20 -497 189 -90
89 -162 167 -161 174 4 17 745 765 799 806 26 19 140 83 254 142 245 126 250
129 304 177 38 35 111 128 111 141 0 4 41 82 92 174 50 92 99 186 109 208 36
82 26 186 -25 260 -35 51 -209 216 -251 238 -30 15 -59 21 -115 21 -82 1 -57
11 -457 -186 -162 -80 -214 -137 -322 -348 -155 -304 -227 -420 -253 -404 -6
4 -8 3 -5 -3 8 -12 -277 -296 -287 -285 -4 4 -6 2 -4 -4 1 -6 -98 -111 -222
-233 l-225 -221 -165 167 c-189 192 -194 201 -190 343 9 281 5 349 -28 460
-59 195 -146 338 -289 473 -23 22 -40 44 -36 50 3 6 1 7 -5 3 -6 -3 -39 13
-74 38 -137 95 -286 152 -449 172 -77 9 -161 10 -229 2z m310 -268 c328 -94
561 -393 561 -720 1 -52 -2 -143 -5 -201 -4 -79 -2 -120 10 -165 9 -32 17 -64
18 -69 1 -6 16 -36 34 -67 43 -77 1172 -1210 1247 -1252 28 -15 88 -37 135
-48 71 -17 101 -19 180 -13 52 5 138 8 190 7 281 -3 548 -176 670 -436 18 -38
36 -84 40 -103 l8 -34 -31 25 c-99 77 -284 201 -328 217 -127 48 -254 42 -377
-18 -79 -39 -129 -82 -191 -166 -150 -203 -142 -447 20 -632 18 -20 126 -102
241 -182 129 -90 206 -149 200 -155 -5 -5 -45 -19 -88 -30 -112 -30 -280 -29
-388 2 -128 36 -254 110 -351 205 -39 38 -105 127 -105 141 0 8 -4 14 -9 14
-9 0 -43 74 -72 159 -32 91 -36 157 -25 396 10 227 -23 295 -253 526 -93 93
-166 171 -163 174 3 3 0 5 -6 5 -11 0 -792 778 -792 789 0 3 -8 11 -18 16 -10
6 -40 24 -66 42 -26 17 -84 41 -129 53 -73 20 -96 22 -202 15 -173 -10 -193
-10 -260 -1 -253 32 -489 201 -594 426 -23 51 -53 132 -49 136 7 6 223 -159
220 -168 -1 -5 1 -7 6 -4 5 3 24 -5 43 -18 52 -34 129 -64 189 -72 30 -5 57
-8 60 -7 3 1 30 4 60 7 80 8 94 12 152 41 62 31 115 70 141 102 10 13 25 29
32 36 30 31 85 129 105 187 55 162 15 350 -99 473 -36 39 -217 172 -408 300
-24 16 -43 32 -43 36 0 8 70 31 145 46 87 19 254 11 345 -15z m3017 -82 l82
-82 -46 -85 c-150 -280 -178 -329 -200 -352 -25 -27 -57 -45 -338 -190 -82
-43 -179 -99 -215 -126 -36 -26 -69 -47 -73 -45 -5 1 -6 -1 -3 -6 3 -5 -14
-27 -37 -49 -23 -22 -194 -194 -379 -382 -186 -187 -342 -341 -346 -341 -12 0
-122 116 -122 128 0 6 4 12 9 14 27 9 801 790 835 843 22 32 61 100 86 150 26
49 75 145 110 212 34 67 75 135 90 151 28 31 110 79 110 65 0 -5 4 -3 8 3 7
12 320 173 337 173 5 1 47 -36 92 -81z m-2029 -2745 c-62 -61 -117 -109 -122
-106 -6 4 -7 2 -3 -2 10 -11 -143 -166 -156 -158 -6 3 -7 2 -4 -4 8 -13 -237
-256 -248 -246 -4 4 -6 3 -2 -3 7 -12 -215 -237 -226 -229 -4 3 -5 2 -2 -2 8
-10 -147 -163 -158 -156 -6 3 -7 2 -4 -4 4 -5 -56 -71 -132 -147 -106 -104
-152 -142 -194 -160 -161 -72 -311 -42 -447 89 -93 91 -131 175 -131 293 0 66
16 125 48 182 16 28 273 293 672 692 l646 648 287 -287 288 -288 -112 -112z"/>
</g>
</svg>
